<?xml version="1.0" standalone="no"?>
<!DOCTYPE svg PUBLIC "-//W3C//DTD SVG 20010904//EN"
 "http://www.w3.org/TR/2001/REC-SVG-20010904/DTD/svg10.dtd">
<svg version="1.0" xmlns="http://www.w3.org/2000/svg"
 width="640.000000pt" height="373.000000pt" viewBox="0 0 640.000000 373.000000"
 preserveAspectRatio="xMidYMid meet">
<metadata>
Created by potrace 1.16, written by Peter Selinger 2001-2019
</metadata>
<g transform="translate(0.000000,373.000000) scale(0.100000,-0.100000)"
fill="#000000" stroke="none">
<path d="M1390 3720 c767 -3 1274 -7 1125 -10 l-270 -4 190 -6 190 -6 -175 -4
-175 -4 155 -6 c138 -5 145 -6 65 -10 l-90 -4 80 -6 c56 -4 71 -7 50 -11 -21
-5 -18 -5 10 -3 22 2 51 6 65 10 18 4 21 3 11 -4 -21 -15 5 -26 69 -28 30 0
60 -2 67 -3 12 -1 12 -18 0 -38 -6 -9 -1 -13 17 -13 14 0 26 5 26 10 0 20 21
9 30 -15 11 -30 20 -31 43 -5 l17 20 20 -20 c16 -16 28 -19 55 -14 18 3 42 1
52 -5 14 -8 14 -11 3 -11 -11 0 -10 -3 4 -12 15 -8 21 -7 28 6 9 16 11 16 28
1 17 -15 19 -15 30 2 10 16 11 14 8 -12 -4 -30 -3 -30 39 -26 30 2 43 8 43 18
0 10 6 12 23 7 12 -3 24 -11 25 -15 5 -12 32 -12 32 0 0 10 47 4 77 -11 12 -6
40 -8 62 -5 30 4 44 0 60 -14 26 -25 41 -24 41 1 0 24 8 25 35 4 12 -9 30 -12
47 -9 35 8 77 -3 57 -15 -24 -15 37 -23 76 -10 27 9 40 9 48 1 15 -15 57 -14
58 2 1 6 5 -4 8 -23 6 -32 7 -30 15 30 5 36 10 59 13 53 3 -7 -5 -81 -16 -165
-11 -84 -32 -241 -46 -348 -28 -206 -43 -257 -85 -276 -109 -51 -148 -73 -142
-79 4 -4 -13 -4 -38 -1 -25 3 -121 15 -215 26 -93 11 -191 23 -217 26 -43 5
-92 -7 -72 -18 5 -3 85 -20 178 -39 l168 -33 -166 -55 c-121 -39 -166 -58
-167 -70 0 -9 -3 -11 -5 -4 -4 9 -16 8 -50 -2 -24 -7 -44 -10 -44 -7 0 16 -65
-59 -85 -99 -27 -52 -25 -99 3 -77 12 10 14 10 8 1 -9 -16 -1 -16 25 -3 14 8
19 7 19 -2 0 -7 5 -5 13 5 6 10 26 18 42 20 17 1 36 8 43 15 7 6 19 12 25 12
7 0 25 14 40 30 16 17 32 28 37 25 5 -3 20 -1 34 5 45 17 76 20 76 7 0 -7 5
-4 11 5 11 20 31 24 24 5 -4 -8 9 -12 41 -13 26 -1 41 2 34 6 -8 5 -4 9 12 12
12 3 31 9 41 13 13 5 16 3 11 -8 -3 -8 -1 -18 5 -22 6 -3 11 2 12 12 0 14 2
15 7 3 9 -20 32 -24 32 -4 0 8 4 13 9 9 6 -3 14 3 20 12 6 10 11 15 11 10 0
-4 11 0 25 9 14 9 25 12 25 7 0 -4 -16 -17 -35 -27 -24 -13 -42 -34 -57 -68
-17 -39 -26 -48 -46 -48 -25 0 -25 0 -6 23 l19 22 -25 -22 c-20 -17 -40 -22
-100 -25 -52 -2 -79 -8 -87 -18 -8 -10 -31 -15 -75 -15 -34 0 -72 -6 -83 -12
l-20 -12 20 -1 c16 0 17 -2 6 -9 -19 -12 -41 -3 -42 18 0 10 -2 11 -6 4 -2 -7
-11 -13 -20 -13 -12 0 -12 -2 1 -16 21 -20 20 -27 -1 -20 -50 15 -842 130
-849 124 -2 -3 95 -20 215 -38 130 -20 217 -38 214 -44 -4 -5 3 -7 16 -3 18 4
21 2 16 -16 -5 -21 -5 -21 6 1 7 12 15 22 18 22 9 0 311 -49 343 -56 l28 -6
-20 -39 c-22 -42 -21 -42 -92 -30 -52 8 -60 0 -33 -35 8 -10 15 -34 15 -51 0
-18 4 -33 8 -33 12 0 32 -62 32 -96 -1 -24 -2 -26 -11 -11 -12 20 -40 22 -57
5 -12 -12 -17 -114 -6 -142 3 -9 17 -16 31 -16 18 0 28 9 39 35 18 44 30 44
48 0 11 -27 21 -35 40 -35 13 0 27 6 29 13 3 6 6 -3 6 -20 1 -36 31 -49 31
-13 0 27 26 26 33 -1 3 -12 12 -19 19 -17 16 5 22 41 13 75 -4 19 -10 23 -26
18 -18 -6 -20 -4 -13 17 4 12 7 33 6 46 -1 12 2 22 7 22 4 0 9 12 9 28 1 45 5
61 13 57 4 -3 5 -15 3 -28 -3 -15 0 -13 10 9 13 27 23 33 83 47 84 20 124 24
141 14 6 -5 12 -5 12 0 0 4 25 8 55 7 30 0 55 3 55 6 0 4 17 4 38 0 21 -3 50
-1 67 6 17 6 50 18 75 25 28 9 49 22 54 35 6 12 33 33 60 48 28 14 62 35 76
46 14 10 52 24 85 29 33 6 110 19 170 31 149 27 169 26 194 -7 l21 -28 -6 28
c-4 17 -2 27 6 27 6 0 9 4 6 8 -3 5 34 14 82 20 83 12 351 55 678 108 141 23
184 24 184 4 0 -4 -29 -14 -65 -21 -36 -7 -62 -15 -60 -18 6 -6 505 92 505 99
0 3 -4 11 -9 19 -8 12 -32 10 -158 -14 -81 -16 -184 -31 -228 -35 -44 -4 -192
-26 -330 -48 -137 -22 -317 -50 -400 -62 -204 -30 -617 -100 -627 -106 -15
-10 -8 13 8 27 80 66 144 350 93 412 -15 19 -21 21 -46 11 -19 -7 -38 -8 -54
-2 -13 5 -38 8 -56 6 -31 -4 -32 -3 -16 14 9 10 26 18 37 19 12 0 30 4 40 8
18 7 18 8 -3 28 -19 17 -20 22 -7 32 19 16 25 61 30 236 3 77 9 214 13 305 7
141 9 155 14 95 5 -66 6 -67 8 -20 2 36 5 43 9 27 4 -13 9 -22 12 -21 10 5 50
-22 47 -33 -1 -6 4 -13 11 -15 9 -3 12 1 10 12 -2 10 3 20 10 22 6 3 12 -3 12
-13 0 -16 1 -16 19 0 16 14 23 15 41 6 15 -8 20 -18 17 -31 -3 -10 -1 -19 4
-19 5 0 9 11 9 25 0 14 5 25 10 25 6 0 10 -9 10 -21 0 -11 6 -27 14 -35 13
-12 14 -9 9 22 -4 27 -3 35 5 30 7 -4 12 -17 12 -28 0 -20 1 -20 18 -5 25 23
36 21 58 -8 22 -30 66 -49 92 -41 11 4 24 0 32 -9 7 -8 21 -15 31 -15 11 0 19
-4 19 -10 0 -5 7 -6 17 -3 11 4 14 3 9 -5 -4 -7 -1 -12 8 -12 9 0 16 7 16 15
0 11 7 14 23 11 42 -8 55 -17 62 -44 7 -25 8 -26 15 -7 5 11 9 14 9 8 1 -7 8
-13 16 -13 9 0 12 -6 9 -15 -5 -11 1 -15 20 -15 18 0 24 4 20 15 -4 8 -1 15 5
15 6 0 11 -9 11 -20 0 -18 2 -19 21 -8 17 10 23 10 26 1 3 -7 13 -13 24 -13
10 0 19 -7 19 -15 0 -8 5 -15 10 -15 6 0 10 5 10 10 0 6 5 10 10 10 6 0 10 -7
10 -15 0 -18 16 -20 23 -2 3 6 6 4 6 -7 1 -18 2 -18 19 -3 23 21 36 22 29 3
-3 -8 1 -20 9 -27 12 -10 12 -14 2 -20 -10 -7 -9 -9 5 -9 10 0 17 8 17 20 0
26 27 26 49 -1 11 -14 32 -23 61 -25 24 -3 46 -8 50 -13 7 -11 68 -25 103 -22
21 1 30 -4 34 -19 6 -23 23 -27 23 -6 0 10 9 12 40 6 22 -4 40 -4 40 1 0 4 10
-2 23 -15 20 -20 32 -23 84 -20 60 3 121 -11 135 -31 4 -5 10 -2 14 8 7 20 24
23 24 5 1 -45 148 -81 249 -62 27 5 37 3 48 -11 7 -10 16 -15 20 -11 4 3 13
-4 20 -16 l12 -23 1 25 c0 18 6 26 20 27 11 1 19 -1 19 -5 -3 -20 2 -32 12
-26 6 3 9 15 6 25 -3 10 -1 21 3 24 5 3 13 -14 18 -37 6 -24 10 -36 11 -27 1
11 11 15 44 13 76 -4 74 -3 57 -14 -13 -8 -12 -11 5 -24 23 -18 41 -20 50 -6
9 15 25 12 25 -5 0 -13 4 -14 20 -5 17 9 20 8 20 -9 0 -11 -4 -21 -10 -23 -5
-1 17 -4 50 -6 l60 -2 0 480 0 480 -3202 -2 c-2310 -2 -2814 -4 -1808 -8z"/>
<path d="M1144 2671 c1 -152 6 -161 99 -190 33 -10 55 -21 48 -25 -21 -14 -11
-24 32 -32 23 -4 44 -8 47 -9 3 0 28 -5 55 -10 56 -9 64 -11 68 -15 1 -1 13
-4 27 -5 90 -11 126 -18 131 -27 4 -6 11 -8 16 -5 16 10 143 -15 136 -26 -4
-6 0 -8 11 -4 10 4 22 7 27 7 5 0 9 4 9 10 0 5 -23 12 -51 16 -45 6 -87 29
-75 41 2 3 62 -5 133 -16 71 -12 138 -20 149 -20 27 2 -183 37 -291 49 -103
11 -366 61 -448 85 -38 11 -65 26 -82 46 -24 29 -25 37 -25 145 0 63 -4 114
-9 114 -5 0 -8 -58 -7 -129z"/>
<path d="M4720 2691 c-69 -10 -246 -33 -393 -52 -148 -19 -273 -37 -279 -40
-5 -3 -8 -17 -6 -31 l3 -24 240 42 c132 24 296 52 365 64 145 24 197 37 205
50 3 6 3 10 -2 9 -4 -1 -64 -9 -133 -18z"/>
<path d="M2603 2190 c4 -16 2 -17 -13 -8 -14 9 -22 8 -35 -5 -9 -9 -24 -17
-34 -17 -10 0 -28 -11 -41 -25 -13 -14 -28 -25 -34 -25 -6 0 -12 -18 -14 -40
-2 -30 1 -38 11 -34 8 3 17 -2 20 -10 7 -17 -8 -30 -23 -21 -5 3 -10 -1 -10
-10 0 -9 4 -14 9 -11 5 4 7 -2 4 -12 -7 -27 42 -80 87 -93 74 -22 143 9 180
82 35 68 23 130 -35 182 -20 18 -20 18 4 11 16 -4 21 -3 17 5 -5 7 4 11 24 11
27 0 33 -6 50 -44 20 -47 34 -61 51 -51 6 5 3 13 -10 22 -27 18 -27 37 -1 30
11 -3 22 -1 25 3 3 5 -8 11 -25 15 -16 4 -30 10 -30 15 0 5 -26 13 -57 19 -32
6 -73 16 -92 21 -30 8 -33 7 -28 -10z"/>
<path d="M4229 2195 c-3 -2 -19 -5 -36 -7 -20 -1 -29 -6 -26 -15 3 -8 -3 -13
-15 -13 -27 0 -52 -10 -52 -20 0 -5 14 -5 30 0 28 8 30 7 30 -16 0 -23 -2 -24
-22 -12 -13 7 -27 12 -31 13 -4 0 -11 5 -15 12 -5 9 -20 9 -57 1 -42 -9 -47
-12 -32 -23 19 -14 24 -30 5 -19 -6 4 -18 -2 -25 -12 -14 -17 -14 -16 -8 14 7
36 7 36 -30 22 -25 -9 -27 -14 -23 -55 l3 -45 -40 41 c-56 58 -57 29 -1 -31
40 -43 46 -55 46 -92 -1 -34 -3 -39 -11 -25 -13 23 -46 22 -59 -2 -14 -28 -13
-114 3 -135 21 -29 61 -17 67 19 7 43 37 45 48 3 7 -28 13 -33 37 -33 25 0 30
5 37 35 4 19 5 47 2 63 -4 24 -2 27 26 27 82 0 160 79 160 162 0 24 -7 53 -15
64 -16 21 -20 64 -6 64 6 0 13 -4 16 -10 10 -16 21 -11 21 10 0 18 -16 27 -27
15z"/>
<path d="M2480 1455 c0 -57 -4 -95 -10 -95 -5 0 -10 -12 -10 -26 0 -20 -4 -25
-16 -20 -9 3 -12 2 -9 -5 9 -13 -47 0 -58 15 -6 7 -7 4 -3 -6 7 -23 -2 -23
-27 -1 -18 17 -20 17 -31 1 -10 -14 -19 -16 -44 -8 -21 5 -34 5 -38 -2 -4 -7
-10 -5 -16 6 -5 9 -14 16 -21 16 -9 0 -8 -3 1 -8 20 -13 4 -40 -23 -37 -21 2
-23 -2 -20 -26 2 -16 -1 -29 -7 -29 -6 0 -9 20 -6 48 2 39 0 49 -12 48 -23 -2
-30 -17 -30 -68 0 -53 -9 -58 -47 -28 -21 16 -22 21 -10 26 10 3 14 15 12 32
-2 15 -4 30 -4 35 -1 4 -9 7 -20 7 -16 0 -18 -7 -15 -45 1 -25 -2 -45 -7 -45
-6 0 -7 -9 -4 -21 6 -17 3 -20 -12 -17 -15 3 -17 11 -15 46 4 44 -12 72 -37
64 -9 -3 -11 0 -6 8 5 8 4 11 -2 7 -6 -4 -8 -19 -5 -34 5 -26 4 -27 -13 -13
-15 12 -17 12 -10 1 6 -11 4 -13 -9 -8 -10 4 -21 7 -24 7 -4 0 4 10 18 21 24
19 24 20 2 9 -17 -8 -27 -8 -37 0 -10 8 -15 8 -21 -1 -5 -8 -3 -9 6 -4 9 6 11
4 5 -4 -5 -9 -10 -10 -18 -2 -6 6 -16 7 -28 1 -12 -7 -20 -6 -24 0 -4 6 -16 8
-27 4 -11 -3 -18 -2 -15 2 3 5 -15 9 -39 9 -24 0 -44 -3 -44 -7 0 -6 -164 -4
-195 2 -5 1 -14 1 -20 0 -5 -1 -14 -3 -20 -5 -5 -1 -23 -3 -40 -5 -16 -1 -23
-4 -15 -6 18 -5 45 -44 31 -44 -5 0 -11 7 -15 15 -3 8 -18 15 -33 15 -22 0
-25 2 -13 10 13 8 12 10 -2 10 -13 0 -17 -7 -16 -24 2 -25 17 -30 30 -11 5 6
8 5 8 -3 0 -8 -9 -16 -19 -19 -11 -3 -22 -12 -24 -22 -4 -13 -5 -13 -6 3 -1
12 -6 16 -16 12 -9 -3 -15 0 -15 9 0 8 -5 15 -11 15 -6 0 -8 -7 -5 -16 5 -13
3 -14 -6 -7 -12 8 -30 10 -43 3 -3 -1 -9 -3 -14 -4 -17 -2 -19 -11 -6 -23 10
-10 16 -9 25 2 17 21 30 19 30 -5 0 -16 -6 -19 -29 -16 -15 2 -33 6 -39 10 -6
3 -13 2 -17 -4 -4 -7 -12 -7 -26 0 -10 6 -19 8 -19 4 0 -3 -6 -2 -13 5 -10 8
-17 7 -26 -2 -11 -10 -11 -8 -2 11 7 13 17 20 24 16 7 -4 9 -3 4 1 -4 5 -20 9
-36 10 -24 1 -27 -2 -23 -19 4 -18 2 -18 -14 4 -33 46 -41 51 -66 41 -13 -6
-16 -10 -8 -11 13 0 13 -1 0 -10 -9 -6 -11 -10 -3 -10 17 0 5 -27 -14 -34 -13
-5 -13 -4 -4 7 9 11 8 17 -3 26 -11 9 -14 8 -12 -6 1 -14 -7 -18 -31 -19 -42
0 -51 -10 -17 -18 33 -9 25 -18 -21 -22 -33 -3 -43 4 -28 19 3 4 8 20 9 36 4
33 -13 52 -27 30 -5 -9 -7 0 -5 23 4 41 -8 51 -52 42 -25 -5 -27 -9 -24 -45 3
-26 8 -37 16 -32 6 4 19 9 29 10 15 2 18 -3 15 -24 -3 -25 -7 -28 -41 -30 -20
0 -37 3 -37 8 0 5 10 10 23 10 16 1 18 2 5 6 -11 3 -18 14 -18 28 0 32 -11 37
-49 24 -20 -7 -33 -20 -37 -35 -4 -17 -10 -22 -18 -16 -15 12 -48 12 -63 -1
-20 -15 -15 -26 9 -21 19 4 20 3 5 -4 -10 -4 -18 -12 -17 -17 1 -5 -4 -11 -12
-13 -9 -2 -8 0 2 8 12 9 6 10 -25 8 -22 -2 -42 -8 -45 -14 -4 -8 -12 -9 -30
-2 -15 6 -20 12 -12 15 15 6 16 43 1 43 -5 0 -8 -3 -6 -7 2 -5 -2 -21 -9 -38
-13 -29 -14 -29 -20 -8 -3 12 -13 24 -23 26 -14 4 -14 5 2 6 9 0 17 6 17 12 0
5 -5 7 -10 4 -6 -4 -16 -2 -23 3 -13 11 -85 -13 -73 -25 3 -4 12 -1 18 5 7 7
21 11 32 11 17 -1 18 -2 3 -6 -9 -2 -17 -9 -17 -15 0 -6 -12 -8 -30 -4 -16 3
-30 2 -30 -3 0 -9 -7 -10 -70 -14 -25 -1 -48 -6 -51 -11 -4 -5 -10 1 -14 13
-4 13 -11 18 -18 14 -7 -4 -4 4 5 19 16 25 16 26 -2 21 -11 -3 -18 -10 -17
-17 1 -6 -11 -12 -28 -14 -16 -2 -36 -11 -43 -20 -9 -12 -12 -144 -12 -579 0
-492 2 -564 15 -569 8 -4 15 -11 15 -18 0 -7 16 -13 36 -14 20 -2 33 1 30 7
-3 5 1 12 9 15 9 3 20 17 25 31 14 37 39 31 58 -15 l17 -40 58 0 c48 0 57 3
57 18 1 32 28 55 62 54 50 -1 80 7 72 20 -4 7 -3 8 5 4 6 -4 9 -12 6 -17 -4
-5 -1 -9 4 -9 6 0 11 4 11 8 0 5 20 6 45 2 25 -4 48 -3 51 2 3 4 -6 8 -20 8
-14 0 -26 4 -26 10 0 17 74 6 92 -13 12 -13 17 -15 21 -5 3 8 6 5 7 -7 1 -19
1 -19 11 -2 7 12 17 16 30 12 14 -5 19 -2 19 11 0 14 3 15 12 6 13 -13 32 -17
25 -5 -3 5 6 9 20 10 19 1 22 -1 12 -8 -11 -7 -9 -9 7 -9 11 0 25 5 31 11 8 8
17 7 34 -5 13 -9 19 -16 14 -16 -5 0 6 -11 25 -24 19 -13 39 -21 44 -18 5 3 7
-5 3 -17 -5 -21 -4 -21 145 -20 139 0 149 2 135 17 -8 9 -12 23 -10 30 3 6 0
12 -6 12 -6 0 -10 -5 -9 -11 2 -6 -3 -14 -11 -17 -8 -2 -11 0 -7 6 3 5 -1 13
-10 16 -8 3 -12 10 -9 16 4 6 11 8 16 5 5 -4 9 2 10 12 0 11 3 13 6 5 2 -6 9
-10 14 -6 5 3 9 0 9 -5 0 -6 18 -11 40 -11 44 0 45 -2 29 -32 -8 -15 -8 -19 0
-14 6 4 21 4 32 1 17 -6 19 -9 8 -16 -9 -6 6 -9 42 -9 30 0 60 5 67 12 9 9 12
9 12 0 0 -8 26 -12 88 -11 48 0 81 3 75 6 -7 2 -13 13 -13 23 0 24 -31 20 -41
-6 -6 -16 -8 -14 -8 9 -1 23 3 27 28 27 17 0 33 -5 36 -10 4 -6 11 -8 16 -5 5
4 9 2 9 -4 0 -5 -6 -12 -12 -14 -10 -4 -10 -6 0 -6 7 -1 10 -6 7 -11 -4 -6 27
-10 85 -10 89 0 91 1 85 21 -5 15 -4 19 4 15 6 -4 11 -2 11 4 0 6 5 8 10 5 6
-3 10 1 10 11 0 15 8 16 69 11 62 -5 69 -4 64 11 -5 12 0 10 17 -6 13 -12 30
-22 39 -22 8 0 11 -3 7 -7 -3 -4 -27 -6 -52 -4 -29 1 -60 -5 -83 -16 l-36 -18
74 -3 c53 -2 77 1 82 10 6 9 9 9 9 1 0 -9 291 -12 1240 -13 995 0 1240 2 1240
12 0 7 13 13 29 14 20 1 28 -3 24 -12 -6 -16 55 -16 76 0 11 8 13 8 7 -1 -5
-10 182 -13 879 -13 l885 0 0 525 c0 337 -4 524 -10 520 -6 -3 -10 -1 -10 4 0
6 4 11 9 11 15 0 14 210 -1 228 -10 12 -10 14 0 8 7 -4 12 -2 12 7 0 11 -16
14 -70 13 -63 -1 -70 -3 -71 -21 -1 -17 -2 -17 -6 -2 -5 18 -33 24 -33 7 0 -5
-7 -10 -15 -10 -8 0 -15 -4 -15 -9 0 -5 -7 -12 -16 -15 -14 -5 -15 -4 -4 9 10
12 9 15 -6 16 -18 0 -18 1 1 9 22 10 20 11 -12 15 -13 1 -23 -1 -23 -5 0 -4
-18 -7 -40 -6 -22 1 -40 -1 -40 -4 0 -3 -10 -6 -21 -7 -20 -2 -20 -1 -4 11 15
11 14 12 -12 12 -21 0 -29 -4 -29 -18 0 -10 7 -18 16 -19 9 0 10 -2 3 -5 -7
-3 -22 1 -35 8 -13 7 -31 13 -40 14 -9 1 -35 4 -57 8 -33 5 -41 3 -41 -9 0 -8
-5 -15 -11 -15 -6 0 -8 7 -5 16 3 8 2 12 -4 9 -6 -3 -10 -1 -10 5 0 13 -83 3
-88 -11 -5 -14 -52 -11 -52 4 0 7 -9 13 -19 13 -11 0 -17 -4 -15 -8 3 -4 -11
-8 -30 -8 -20 0 -36 4 -36 8 0 4 -12 8 -27 7 -16 0 -26 -4 -23 -10 3 -5 16 -9
30 -7 20 3 23 1 12 -9 -10 -11 -19 -11 -44 -1 -17 6 -36 8 -42 5 -6 -4 -6 0 1
8 11 13 8 15 -22 15 -39 -1 -47 -12 -12 -19 15 -3 12 -5 -12 -6 -25 -1 -32 2
-28 13 4 11 1 13 -11 9 -25 -10 -32 -25 -19 -43 9 -12 9 -13 -3 -3 -8 7 -23
13 -34 13 -19 1 -20 1 -3 11 9 6 15 14 12 18 -5 9 -90 25 -101 19 -4 -2 -7
-28 -8 -58 -1 -74 -20 -81 -24 -9 -2 47 -6 58 -23 62 -13 3 -22 0 -26 -10 -5
-14 6 -26 32 -37 6 -2 4 -9 -4 -17 -9 -9 -11 -9 -7 -2 4 8 -3 17 -18 25 -14 6
-26 17 -26 23 0 8 -15 12 -40 12 -22 0 -40 -3 -40 -7 0 -4 -15 -10 -32 -13
-18 -3 -42 -8 -53 -12 -19 -6 -19 -6 -2 8 9 8 17 16 17 18 0 2 -22 4 -49 4
-27 0 -47 -3 -45 -7 3 -5 0 -8 -5 -8 -6 0 -11 5 -11 10 0 7 -7 8 -17 3 -16 -8
-41 -9 -53 -3 -17 8 -96 11 -237 9 -73 -1 -101 -5 -96 -13 4 -6 -2 -4 -12 4
-11 9 -16 10 -11 3 5 -9 0 -13 -14 -13 -14 0 -19 4 -14 13 4 6 -3 3 -16 -8
-19 -16 -22 -17 -17 -4 4 13 -3 18 -36 22 -23 3 -46 2 -51 -3 -5 -5 -16 -5
-27 0 -12 7 -20 6 -25 -1 -5 -8 -9 -8 -14 1 -4 7 -29 14 -55 16 -31 3 -44 1
-40 -6 9 -14 -8 -13 -23 2 -7 7 -12 8 -12 3 0 -6 -22 -10 -49 -9 l-49 1 5 -36
c3 -25 2 -32 -5 -22 -8 11 -11 11 -16 0 -3 -8 -3 1 0 19 l6 32 -61 2 c-34 1
-76 2 -93 3 -18 2 -38 -1 -43 -6 -7 -5 -11 0 -12 13 -3 30 -20 45 -35 30 -19
-19 -38 -14 -38 11 0 34 -16 55 -32 39 -17 -17 -28 -15 -26 6 1 9 0 35 -2 57
l-3 40 -7 -35 c-4 -19 -8 -29 -9 -22 0 6 -6 12 -11 12 -6 0 -9 -33 -8 -85 1
-47 -2 -88 -5 -92 -4 -3 -8 7 -9 23 -2 47 -3 52 -10 59 -3 3 -4 23 -1 44 3 23
1 41 -6 45 -6 4 -11 25 -11 47 0 32 -3 39 -20 39 -16 0 -20 -7 -21 -37 -1 -21
-2 -58 -3 -83 -1 -44 -2 -45 -34 -44 -30 2 -31 1 -15 -11 14 -11 16 -16 6 -26
-11 -11 -13 -10 -13 4 0 24 -17 21 -25 -3 -4 -11 -11 -18 -16 -15 -5 3 -6 0
-4 -7 4 -9 -3 -14 -17 -15 -13 0 -17 1 -10 4 21 8 13 21 -19 28 -23 5 -28 9
-18 16 11 7 12 12 2 29 -7 11 -13 46 -13 79 0 55 -2 59 -26 64 -18 3 -24 1
-20 -9 3 -8 0 -13 -7 -11 -6 1 -13 -9 -15 -22 -3 -19 0 -22 13 -17 13 5 16 2
11 -10 -3 -8 -7 -48 -8 -87 l-2 -72 -6 75 c-5 62 -7 67 -9 30 -2 -25 -3 -48
-3 -51 1 -3 -10 -4 -23 -1 -14 2 -25 8 -25 13 0 5 -4 9 -10 9 -5 0 -10 -18
-10 -40 0 -29 -4 -40 -15 -40 -8 0 -15 7 -15 16 0 10 -6 14 -15 10 -11 -4 -15
2 -15 27 0 18 -4 27 -8 21 -4 -6 -17 -14 -29 -18 -13 -4 -23 -12 -23 -17 0 -5
-9 -9 -20 -9 -15 0 -20 7 -20 26 0 21 -4 25 -20 21 -17 -4 -19 -1 -14 19 5 20
2 24 -15 24 -16 0 -21 -6 -21 -27 0 -16 -4 -34 -9 -42 -8 -12 -12 -11 -27 3
-13 13 -19 15 -25 5 -11 -18 -39 7 -34 31 4 20 -13 30 -41 25 -11 -2 -22 -4
-26 -4 -5 -1 -8 -17 -8 -36 0 -19 -4 -35 -10 -35 -5 0 -10 -8 -10 -17 0 -15
-2 -16 -10 -3 -5 8 -5 16 -1 18 5 2 7 12 4 23 -4 15 -8 17 -19 8 -10 -8 -14
-8 -14 0 0 18 -20 12 -21 -6 0 -15 -2 -15 -9 2 -7 16 -9 12 -10 -20 0 -33 -3
-37 -11 -22 -6 9 -14 15 -19 12 -12 -8 -19 7 -22 48 -2 33 -5 37 -27 34 -21
-3 -25 -9 -26 -41 -1 -20 -8 -42 -14 -49 -10 -9 -11 -6 -6 18 5 26 4 27 -4 7
-7 -14 -7 -31 -1 -47 6 -15 6 -26 -1 -30 -5 -4 -7 -10 -4 -14 2 -5 -7 -7 -21
-5 -21 2 -25 -1 -21 -16 3 -13 0 -18 -13 -17 -15 1 -16 5 -9 19 7 14 6 18 -6
18 -9 0 -15 9 -15 22 0 21 1 21 14 3 8 -11 19 -16 30 -12 21 8 18 39 -4 44
-13 4 -13 3 0 -6 10 -7 11 -11 3 -11 -24 0 -33 40 -33 144 0 64 -4 106 -10
106 -6 0 -10 -38 -10 -95z m1515 -835 c3 -5 26 -10 51 -10 28 0 43 4 39 10
-10 16 12 12 29 -6 9 -8 20 -12 26 -9 5 3 10 2 10 -3 0 -5 21 -7 46 -4 32 3
45 2 40 -6 -3 -6 -1 -14 5 -18 8 -5 9 -3 4 6 -5 9 -1 11 16 6 13 -3 18 -3 12
0 -23 10 -14 21 17 20 17 -1 28 -6 26 -12 -2 -6 2 -11 10 -11 8 0 14 4 14 8 0
16 91 2 104 -16 15 -20 54 -15 79 9 11 11 17 12 27 3 10 -9 11 -9 6 1 -4 6 -3
12 3 12 5 0 14 -7 18 -15 9 -15 108 -47 117 -38 9 9 -6 33 -17 26 -6 -3 -7 -1
-3 5 11 18 23 14 29 -9 3 -12 10 -18 16 -15 5 4 12 2 16 -4 3 -5 -1 -10 -11
-10 -14 0 -16 -8 -12 -50 4 -38 2 -50 -8 -50 -12 0 -19 20 -15 43 1 5 -4 5
-10 1 -6 -3 -15 -1 -19 6 -5 8 -19 15 -32 17 -13 2 -38 11 -55 20 -31 17 -33
17 -49 -2 -15 -19 -23 -20 -137 -13 -146 9 -172 12 -215 22 -28 8 -30 10 -16
21 15 11 15 12 -5 18 -17 4 -21 1 -21 -19 0 -20 11 -30 23 -22 1 1 13 -4 26
-11 30 -16 57 -19 203 -21 94 -1 117 -4 122 -16 11 -28 -12 -50 -68 -67 -34
-11 -56 -24 -56 -33 0 -7 7 -14 15 -14 8 0 15 -4 15 -8 0 -20 -31 -7 -36 15
-5 18 -12 23 -35 21 -19 -2 -28 -7 -25 -15 3 -7 -1 -13 -9 -13 -8 0 -15 4 -15
8 0 4 -10 8 -22 8 -122 1 -199 7 -173 13 17 4 59 4 95 1 36 -4 71 -4 78 0 8 4
-33 12 -90 19 -57 7 -116 15 -133 17 -27 4 -28 4 -7 -5 37 -17 25 -19 -29 -5
-28 7 -59 23 -70 35 -17 20 -19 20 -41 4 l-23 -17 22 7 c28 8 51 -4 32 -16
-19 -12 -66 -11 -74 1 -4 6 -10 8 -14 6 -4 -3 -13 0 -21 5 -13 9 -13 10 0 8 8
-1 22 0 30 4 8 3 22 8 30 10 9 3 5 6 -10 7 -14 1 7 8 45 15 39 7 77 9 85 5 8
-4 29 -6 45 -4 17 1 51 3 78 3 26 1 47 5 47 10 0 5 -15 8 -32 7 -18 -2 -42 1
-53 6 -18 8 -18 8 3 4 12 -2 22 0 22 5 0 5 -7 9 -16 9 -8 0 -13 4 -9 9 3 6
-12 8 -37 6 -39 -4 -41 -3 -24 10 17 13 14 15 -30 29 -36 11 -42 15 -24 16 23
1 23 2 5 10 -16 7 -17 9 -3 9 9 1 20 -3 23 -9z"/>
</g>
</svg>
